<svg viewBox="0 0 500 500" xmlns="http://www.w3.org/2000/svg">

  <path d="M 312.9677977824378 247.98593882167802 A 63 63 0 1 1 190.3943237370794 229.59991771487418 L 197.9632985006249 232.19040435425524 A 55 55 0 1 0 304.97188695292186 248.24169262209986 Z" fill="#000"></path>
  
  <path d="M 321.4386310159168 292.2554375030207 A 83 83 0 1 1 198.13829556449286 185.19750303387917 L 203.13701406430079 191.44352683784263 A 75 75 0 1 0 314.5529798336598 288.1826242497175 Z" fill="#000"></path>
  
  <path d="M 296.6968856071285 341.80632262864447 A 103 103 0 1 1 238.81457669673546 147.60914930753438 L 239.6833474387366 155.5618367399589 A 95 95 0 1 0 293.06994303570104 334.67573446331284 Z" fill="#000"></path>
  
  <path d="M 238.2621348660829 372.43864799195546 A 123 123 0 1 1 304.3083338942668 139.6387528630234 L 300.7760845352901 146.81672015648527 A 115 115 0 1 0 239.02557324877668 364.4751586916656 Z" fill="#000"></path>
  
  <path d="M 162.13342452338867 362.820498642813 A 143 143 0 1 1 372.1066834292316 175.5758247481814 L 365.27554030032354 179.73941497205934 A 135 135 0 1 0 167.04903713746484 356.50886235510313 Z" fill="#000"></path>
  
  <path d="M 96.49422216508677 304.8176629499859 A 163 163 0 1 1 412.97138216593964 253.05427486046287 L 404.9727867222125 252.90437179982666 A 155 155 0 1 0 104.02824807109477 302.12722550458784 Z" fill="#000"></path>

</svg>