<svg xmlns="http://www.w3.org/2000/svg" viewBox="0 0 180.79 171.56"><g fill="#000"><path d="M 74.75,159.39 L 74.75,159.39 L 79.40,161.00 L 81.16,161.16 Z"/><path d="M 74.29,159.34 L 74.29,159.34 L 76.88,160.65 L 78.89,160.94 Z"/><path d="M 72.72,159.00 L 72.72,159.00 L 68.84,158.77 L 70.89,159.35 Z"/><path d="M 72.25,158.85 L 72.25,158.85 L 66.53,157.99 L 68.33,158.61 Z"/><path d="M 71.83,158.70 L 71.83,158.70 L 64.61,157.22 L 66.08,157.83 Z"/><path d="M 71.52,158.55 L 71.52,158.55 L 63.23,156.48 L 64.28,157.05 Z"/><path d="M 71.32,158.41 L 71.32,158.41 L 62.45,155.83 L 63.02,156.34 Z"/><path d="M 71.24,158.30 L 71.24,158.30 L 62.32,155.30 L 62.37,155.71 Z"/><path d="M 71.31,158.22 L 71.31,158.22 L 62.85,154.92 L 62.38,155.21 Z"/><path d="M 71.49,158.17 L 71.49,158.17 L 64.01,154.72 L 63.04,154.87 Z"/><path d="M 71.78,158.16 L 71.78,158.16 L 65.73,154.72 L 64.32,154.71 Z"/><path d="M 72.18,158.18 L 72.18,158.18 L 67.91,154.89 L 66.14,154.74 Z"/><path d="M 72.64,158.23 L 72.64,158.23 L 70.42,155.24 L 68.41,154.94 Z"/><path d="M 73.15,158.32 L 73.15,158.32 L 73.13,155.76 L 70.97,155.34 Z"/><path d="M 73.69,158.44 L 73.69,158.44 L 75.87,156.40 L 73.70,155.88 Z"/><path d="M 74.19,158.57 L 74.19,158.57 L 78.48,157.12 L 76.43,156.54 Z"/><path d="M 74.67,158.72 L 74.67,158.72 L 80.82,157.90 L 78.99,157.28 Z"/><path d="M 75.07,158.87 L 75.07,158.87 L 82.73,158.68 L 81.25,158.06 Z"/><path d="M 75.38,159.01 L 75.38,159.01 L 84.12,159.42 L 83.06,158.85 Z"/><path d="M 75.58,159.14 L 75.58,159.14 L 84.89,160.07 L 84.32,159.56 Z"/><path d="M 75.65,159.26 L 75.65,159.26 L 85.01,160.60 L 84.97,160.19 Z"/><path d="M 75.61,159.34 L 75.61,159.34 L 84.47,160.97 L 84.95,160.69 Z"/><path d="M 75.43,159.40 L 75.43,159.40 L 83.31,161.17 L 84.28,161.03 Z"/><path d="M 75.14,159.41 L 75.14,159.41 L 81.58,161.18 L 82.99,161.19 Z"/><path d="M 58.93,154.78 L 58.38,154.28 L 50.28,150.15 L 51.38,151.14 Z"/><path d="M 58.15,153.92 L 58.10,153.53 L 49.95,149.01 L 50.04,149.80 Z"/><path d="M 58.27,153.27 L 58.75,152.99 L 51.04,148.19 L 50.11,148.74 Z"/><path d="M 59.31,152.84 L 60.27,152.69 L 53.48,147.74 L 51.59,148.01 Z"/><path d="M 61.19,152.65 L 62.59,152.66 L 57.14,147.68 L 54.38,147.67 Z"/><path d="M 63.80,152.74 L 65.56,152.89 L 61.81,148.04 L 58.34,147.73 Z"/><path d="M 66.97,153.08 L 69.01,153.38 L 67.23,148.78 L 63.24,148.20 Z"/><path d="M 70.54,153.64 L 72.71,154.06 L 73.08,149.87 L 68.80,149.04 Z"/><path d="M 74.29,154.42 L 76.48,154.94 L 79.01,151.25 L 74.70,150.22 Z"/><path d="M 78.02,155.34 L 80.09,155.93 L 84.66,152.81 L 80.58,151.65 Z"/><path d="M 81.50,156.36 L 83.34,156.99 L 89.73,154.49 L 86.11,153.26 Z"/><path d="M 84.55,157.44 L 86.04,158.06 L 93.88,156.18 L 90.95,154.96 Z"/><path d="M 86.98,158.49 L 88.03,159.08 L 96.90,157.78 L 94.82,156.64 Z"/><path d="M 88.65,159.48 L 89.21,159.98 L 98.61,159.19 L 97.50,158.19 Z"/><path d="M 89.46,160.33 L 89.50,160.73 L 98.92,160.35 L 98.84,159.55 Z"/><path d="M 89.35,160.99 L 88.87,161.27 L 97.81,161.16 L 98.75,160.61 Z"/><path d="M 88.33,161.43 L 87.36,161.57 L 95.35,161.61 L 97.26,161.33 Z"/><path d="M 46.11,147.20 L 46.02,146.42 L 38.96,140.62 L 39.09,141.74 Z"/><path d="M 46.32,145.99 L 47.22,145.44 L 40.56,139.37 L 39.23,140.15 Z"/><path d="M 48.17,145.19 L 50.04,144.92 L 44.19,138.67 L 41.48,139.07 Z"/><path d="M 51.58,144.87 L 54.31,144.88 L 49.67,138.58 L 45.68,138.55 Z"/><path d="M 56.30,145.02 L 59.77,145.33 L 56.69,139.08 L 51.63,138.63 Z"/><path d="M 62.07,145.64 L 66.09,146.23 L 64.84,140.18 L 58.98,139.32 Z"/><path d="M 68.56,146.68 L 72.88,147.52 L 73.64,141.80 L 67.33,140.58 Z"/><path d="M 75.39,148.08 L 79.77,149.12 L 82.56,143.86 L 76.19,142.34 Z"/><path d="M 82.21,149.76 L 86.35,150.94 L 91.07,146.21 L 85.03,144.50 Z"/><path d="M 88.60,151.62 L 92.26,152.87 L 98.67,148.75 L 93.34,146.93 Z"/><path d="M 94.21,153.58 L 97.16,154.81 L 104.91,151.29 L 100.60,149.49 Z"/><path d="M 98.69,155.51 L 100.78,156.66 L 109.44,153.70 L 106.40,152.02 Z"/><path d="M 101.78,157.30 L 102.90,158.31 L 112.02,155.83 L 110.40,154.38 Z"/><path d="M 103.29,158.86 L 103.38,159.65 L 112.51,157.57 L 112.38,156.40 Z"/><path d="M 103.12,160.08 L 102.20,160.63 L 110.87,158.80 L 112.24,157.99 Z"/><path d="M 35.57,138.32 L 35.45,137.22 L 29.71,130.42 L 29.88,131.83 Z"/><path d="M 35.85,136.60 L 37.14,135.83 L 31.75,128.79 L 30.10,129.77 Z"/><path d="M 38.48,135.48 L 41.14,135.09 L 36.46,127.87 L 33.04,128.37 Z"/><path d="M 43.29,135.04 L 47.22,135.06 L 43.56,127.71 L 38.53,127.68 Z"/><path d="M 49.96,135.28 L 54.99,135.72 L 52.68,128.34 L 46.24,127.77 Z"/><path d="M 58.11,136.17 L 63.99,137.03 L 63.30,129.73 L 55.78,128.63 Z"/><path d="M 67.28,137.65 L 73.66,138.89 L 74.77,131.82 L 66.60,130.23 Z"/><path d="M 76.97,139.63 L 83.43,141.17 L 86.39,134.48 L 78.11,132.51 Z"/><path d="M 86.64,142.01 L 92.75,143.75 L 97.45,137.56 L 89.63,135.33 Z"/><path d="M 95.75,144.65 L 101.12,146.48 L 107.31,140.86 L 100.43,138.51 Z"/><path d="M 103.74,147.41 L 108.06,149.22 L 115.40,144.18 L 109.88,141.87 Z"/><path d="M 110.15,150.15 L 113.18,151.81 L 121.28,147.31 L 117.41,145.18 Z"/><path d="M 114.55,152.70 L 116.17,154.14 L 124.65,150.10 L 122.59,148.24 Z"/><path d="M 116.70,154.89 L 116.84,156.05 L 125.31,152.36 L 125.14,150.89 Z"/><path d="M 26.90,127.59 L 26.75,126.24 L 22.50,118.78 L 22.68,120.40 Z"/><path d="M 27.26,125.42 L 28.86,124.47 L 24.91,116.83 L 23.01,117.95 Z"/><path d="M 30.58,124.03 L 33.89,123.54 L 30.49,115.70 L 26.57,116.27 Z"/><path d="M 36.62,123.48 L 41.54,123.51 L 38.99,115.48 L 33.16,115.45 Z"/><path d="M 45.02,123.81 L 51.36,124.37 L 49.91,116.20 L 42.39,115.53 Z"/><path d="M 55.25,124.96 L 62.75,126.06 L 62.65,117.82 L 53.77,116.52 Z"/><path d="M 66.77,126.86 L 74.99,128.45 L 76.42,120.29 L 66.69,118.40 Z"/><path d="M 78.97,129.37 L 87.34,131.36 L 90.36,123.46 L 80.45,121.10 Z"/><path d="M 91.20,132.35 L 99.09,134.60 L 103.58,127.14 L 94.22,124.48 Z"/><path d="M 102.73,135.67 L 109.61,138.01 L 115.33,131.10 L 107.17,128.33 Z"/><path d="M 112.86,139.15 L 118.35,141.43 L 124.98,135.09 L 118.49,132.38 Z"/><path d="M 120.96,142.58 L 124.79,144.69 L 132.02,138.86 L 127.49,136.36 Z"/><path d="M 126.52,145.78 L 128.55,147.60 L 136.06,142.20 L 133.66,140.04 Z"/><path d="M 129.22,148.56 L 129.39,150.01 L 136.88,144.91 L 136.69,143.20 Z"/><path d="M 20.41,115.39 L 20.24,113.83 L 17.55,106.10 L 17.75,107.84 Z"/><path d="M 20.86,112.83 L 22.68,111.76 L 20.22,103.89 L 18.18,105.09 Z"/><path d="M 24.77,111.20 L 28.53,110.66 L 26.49,102.59 L 22.28,103.21 Z"/><path d="M 31.86,110.59 L 37.48,110.61 L 36.07,102.31 L 29.76,102.28 Z"/><path d="M 41.67,111.00 L 49.00,111.64 L 48.43,103.08 L 40.21,102.35 Z"/><path d="M 53.63,112.39 L 62.39,113.67 L 62.88,104.87 L 53.04,103.43 Z"/><path d="M 67.08,114.65 L 76.81,116.53 L 78.51,107.61 L 67.59,105.49 Z"/><path d="M 81.36,117.60 L 91.32,119.98 L 94.29,111.18 L 83.11,108.52 Z"/><path d="M 95.75,121.09 L 105.10,123.75 L 109.19,115.35 L 98.70,112.37 Z"/><path d="M 109.34,124.96 L 117.43,127.71 L 122.42,119.85 L 113.34,116.76 Z"/><path d="M 121.26,129.03 L 127.66,131.70 L 133.31,124.37 L 126.13,121.37 Z"/><path d="M 130.76,133.05 L 135.20,135.49 L 141.27,128.64 L 136.29,125.90 Z"/><path d="M 137.27,136.80 L 139.62,138.91 L 145.88,132.43 L 143.24,130.07 Z"/><path d="M 140.41,140.06 L 140.60,141.73 L 146.85,135.51 L 146.64,133.62 Z"/><path d="M 16.90,99.27 L 18.83,98.12 L 17.83,90.40 L 15.76,91.62 Z"/><path d="M 21.29,97.46 L 25.29,96.88 L 24.57,88.98 L 20.27,89.61 Z"/><path d="M 29.18,96.79 L 35.18,96.82 L 34.89,88.65 L 28.44,88.62 Z"/><path d="M 40.09,97.27 L 47.98,97.96 L 48.26,89.45 L 39.79,88.70 Z"/><path d="M 53.35,98.85 L 62.91,100.25 L 63.91,91.34 L 53.66,89.84 Z"/><path d="M 68.24,101.42 L 79.03,103.51 L 80.91,94.24 L 69.32,91.99 Z"/><path d="M 84.10,104.74 L 95.24,107.40 L 98.02,98.06 L 86.05,95.21 Z"/><path d="M 100.21,108.59 L 110.54,111.54 L 114.04,102.62 L 102.94,99.45 Z"/><path d="M 115.40,112.89 L 124.24,115.90 L 128.30,107.49 L 118.79,104.25 Z"/><path d="M 128.67,117.40 L 135.63,120.31 L 140.08,112.39 L 132.60,109.27 Z"/><path d="M 139.21,121.88 L 144.04,124.54 L 148.74,117.02 L 143.56,114.16 Z"/><path d="M 146.42,126.05 L 148.97,128.34 L 153.78,121.12 L 151.04,118.66 Z"/><path d="M 149.88,129.68 L 150.09,131.50 L 154.89,124.46 L 154.67,122.49 Z"/><path d="M 15.52,85.21 L 17.47,84.05 L 17.81,76.79 L 15.79,77.98 Z"/><path d="M 20.25,83.29 L 24.28,82.70 L 24.76,75.31 L 20.58,75.92 Z"/><path d="M 28.70,82.58 L 34.76,82.61 L 35.47,74.96 L 29.20,74.93 Z"/><path d="M 40.35,83.09 L 48.35,83.79 L 49.38,75.77 L 41.10,75.04 Z"/><path d="M 54.49,84.79 L 64.23,86.22 L 65.68,77.71 L 55.60,76.23 Z"/><path d="M 70.32,87.57 L 81.48,89.73 L 83.43,80.68 L 71.88,78.44 Z"/><path d="M 87.16,91.17 L 98.89,93.97 L 101.34,84.60 L 89.21,81.71 Z"/><path d="M 104.50,95.24 L 115.16,98.28 L 117.89,89.38 L 106.86,86.24 Z"/><path d="M 120.71,99.83 L 129.79,102.92 L 132.76,94.47 L 123.35,91.26 Z"/><path d="M 134.83,104.66 L 141.97,107.64 L 145.09,99.56 L 137.69,96.48 Z"/><path d="M 146.02,109.44 L 150.97,112.16 L 154.19,104.38 L 149.06,101.56 Z"/><path d="M 153.64,113.89 L 156.26,116.25 L 159.52,108.66 L 156.81,106.23 Z"/><path d="M 157.28,117.75 L 157.49,119.64 L 160.75,112.14 L 160.54,110.19 Z"/><path d="M 16.78,71.17 L 18.66,70.05 L 20.15,63.51 L 18.27,64.62 Z"/><path d="M 21.69,69.20 L 25.57,68.63 L 27.08,62.01 L 23.19,62.57 Z"/><path d="M 30.43,68.46 L 36.25,68.49 L 37.80,61.65 L 31.98,61.62 Z"/><path d="M 42.44,68.98 L 50.11,69.65 L 51.74,62.47 L 44.08,61.79 Z"/><path d="M 57.04,70.71 L 66.37,72.07 L 68.10,64.43 L 58.77,63.06 Z"/><path d="M 73.40,73.54 L 84.02,75.60 L 85.88,67.44 L 75.26,65.38 Z"/><path d="M 90.83,77.21 L 101.87,79.85 L 103.79,71.40 L 92.75,68.77 Z"/><path d="M 108.48,81.50 L 118.74,84.42 L 120.62,76.12 L 110.37,73.20 Z"/><path d="M 125.05,86.25 L 133.86,89.24 L 135.69,81.20 L 126.88,78.21 Z"/><path d="M 139.48,91.23 L 146.43,94.13 L 148.21,86.32 L 141.25,83.42 Z"/><path d="M 150.90,96.16 L 155.74,98.82 L 157.48,91.17 L 152.64,88.51 Z"/><path d="M 158.65,100.74 L 161.23,103.05 L 162.94,95.47 L 160.37,93.17 Z"/><path d="M 162.33,104.71 L 162.54,106.57 L 164.26,98.98 L 164.05,97.12 Z"/><path d="M 20.62,57.65 L 22.37,56.62 L 24.78,50.97 L 23.10,51.97 Z"/><path d="M 25.55,55.70 L 29.14,55.18 L 31.45,49.50 L 27.99,50.01 Z"/><path d="M 34.28,54.96 L 39.63,54.99 L 41.83,49.15 L 36.66,49.13 Z"/><path d="M 46.26,55.46 L 53.27,56.08 L 55.33,49.96 L 48.56,49.36 Z"/><path d="M 60.82,57.16 L 69.29,58.39 L 71.17,51.89 L 63.00,50.69 Z"/><path d="M 77.18,59.92 L 86.69,61.76 L 88.35,54.84 L 79.16,53.06 Z"/><path d="M 94.53,63.57 L 104.37,65.91 L 105.74,58.70 L 96.24,56.44 Z"/><path d="M 111.91,67.87 L 121.21,70.52 L 122.26,63.24 L 113.28,60.68 Z"/><path d="M 128.23,72.64 L 136.32,75.39 L 137.08,68.14 L 129.26,65.48 Z"/><path d="M 142.42,77.61 L 148.87,80.30 L 149.39,73.09 L 143.16,70.49 Z"/><path d="M 153.65,82.51 L 158.17,85.00 L 158.53,77.81 L 154.16,75.40 Z"/><path d="M 161.26,87.06 L 163.68,89.23 L 163.96,82.00 L 161.62,79.90 Z"/><path d="M 26.89,45.16 L 28.45,44.23 L 31.57,39.57 L 30.12,40.43 Z"/><path d="M 31.68,43.29 L 34.86,42.83 L 37.77,38.18 L 34.81,38.61 Z"/><path d="M 40.09,42.58 L 44.81,42.60 L 47.45,37.86 L 43.06,37.83 Z"/><path d="M 51.62,43.04 L 57.77,43.58 L 60.08,38.62 L 54.37,38.11 Z"/><path d="M 65.63,44.64 L 72.97,45.71 L 74.89,40.45 L 68.05,39.44 Z"/><path d="M 81.36,47.27 L 89.54,48.85 L 90.96,43.24 L 83.35,41.77 Z"/><path d="M 97.97,50.76 L 106.42,52.77 L 107.29,46.87 L 99.44,44.99 Z"/><path d="M 114.53,54.91 L 122.59,57.20 L 122.91,51.10 L 115.41,48.96 Z"/><path d="M 130.02,59.50 L 137.13,61.92 L 136.95,55.67 L 130.34,53.42 Z"/><path d="M 143.50,64.28 L 149.22,66.67 L 148.65,60.30 L 143.32,58.08 Z"/><path d="M 154.15,68.98 L 158.19,71.21 L 157.35,64.73 L 153.58,62.65 Z"/><path d="M 161.36,73.34 L 163.53,75.29 L 162.53,68.67 L 160.51,66.85 Z"/><path d="M 35.36,34.12 L 36.70,33.33 L 40.31,29.67 L 39.11,30.38 Z"/><path d="M 39.81,32.42 L 42.54,32.02 L 45.85,28.41 L 43.41,28.76 Z"/><path d="M 47.60,31.76 L 51.62,31.77 L 54.54,28.11 L 50.95,28.09 Z"/><path d="M 58.26,32.17 L 63.45,32.63 L 65.89,28.81 L 61.26,28.40 Z"/><path d="M 71.20,33.63 L 77.35,34.53 L 79.21,30.47 L 73.72,29.67 Z"/><path d="M 85.71,36.03 L 92.50,37.35 L 93.68,33.01 L 87.63,31.84 Z"/><path d="M 100.99,39.24 L 107.99,40.91 L 108.44,36.27 L 102.20,34.79 Z"/><path d="M 116.16,43.07 L 122.88,44.99 L 122.61,40.08 L 116.62,38.37 Z"/><path d="M 130.33,47.31 L 136.31,49.35 L 135.38,44.20 L 130.05,42.38 Z"/><path d="M 142.63,51.72 L 147.50,53.75 L 146.05,48.37 L 141.71,46.56 Z"/><path d="M 152.35,56.05 L 155.83,57.96 L 153.99,52.36 L 150.89,50.66 Z"/><path d="M 158.93,60.06 L 160.80,61.75 L 158.75,55.92 L 157.07,54.42 Z"/><path d="M 49.63,23.45 L 51.90,23.12 L 55.45,20.51 L 53.54,20.79 Z"/><path d="M 56.50,22.87 L 59.83,22.89 L 62.89,20.25 L 60.09,20.24 Z"/><path d="M 65.90,23.23 L 70.14,23.60 L 72.60,20.85 L 69.02,20.54 Z"/><path d="M 77.29,24.49 L 82.27,25.22 L 84.02,22.29 L 79.82,21.67 Z"/><path d="M 90.05,26.59 L 95.51,27.65 L 96.45,24.48 L 91.85,23.58 Z"/><path d="M 103.45,29.41 L 109.06,30.75 L 109.16,27.28 L 104.42,26.16 Z"/><path d="M 116.73,32.77 L 122.13,34.31 L 121.39,30.55 L 116.83,29.25 Z"/><path d="M 129.10,36.50 L 133.95,38.15 L 132.44,34.08 L 128.35,32.70 Z"/><path d="M 139.85,40.38 L 143.82,42.04 L 141.67,37.67 L 138.32,36.28 Z"/><path d="M 148.33,44.18 L 151.17,45.75 L 148.57,41.10 L 146.16,39.78 Z"/><path d="M 154.05,47.70 L 155.60,49.09 L 152.72,44.17 L 151.41,42.99 Z"/><path d="M 60.78,16.70 L 62.59,16.44 L 66.28,14.75 L 64.87,14.96 Z"/><path d="M 66.48,16.22 L 69.11,16.24 L 72.23,14.55 L 70.17,14.53 Z"/><path d="M 74.26,16.51 L 77.59,16.81 L 80.02,15.03 L 77.42,14.80 Z"/><path d="M 83.68,17.55 L 87.56,18.12 L 89.19,16.19 L 86.16,15.74 Z"/><path d="M 94.22,19.28 L 98.44,20.10 L 99.18,17.95 L 95.88,17.31 Z"/><path d="M 105.28,21.60 L 109.60,22.63 L 109.41,20.21 L 106.03,19.40 Z"/><path d="M 116.21,24.38 L 120.39,25.56 L 119.27,22.84 L 116.02,21.91 Z"/><path d="M 126.40,27.45 L 130.15,28.72 L 128.20,25.68 L 125.27,24.68 Z"/><path d="M 135.24,30.65 L 138.33,31.93 L 135.68,28.57 L 133.26,27.56 Z"/><path d="M 142.21,33.78 L 144.44,35.01 L 141.27,31.33 L 139.52,30.37 Z"/><path d="M 146.91,36.68 L 148.13,37.77 L 144.64,33.80 L 143.69,32.95 Z"/><path d="M 77.16,12.01 L 79.13,12.02 L 82.27,11.21 L 80.92,11.19 Z"/><path d="M 83.04,12.23 L 85.52,12.45 L 87.89,11.55 L 86.19,11.40 Z"/><path d="M 90.15,13.00 L 93.02,13.42 L 94.51,12.39 L 92.54,12.10 Z"/><path d="M 98.10,14.30 L 101.20,14.90 L 101.74,13.67 L 99.61,13.25 Z"/><path d="M 106.43,16.04 L 109.60,16.80 L 109.15,15.30 L 106.98,14.79 Z"/><path d="M 114.67,18.13 L 117.71,19.00 L 116.31,17.21 L 114.22,16.62 Z"/><path d="M 122.34,20.45 L 125.07,21.37 L 122.78,19.27 L 120.91,18.63 Z"/><path d="M 128.99,22.85 L 131.24,23.79 L 128.22,21.36 L 126.67,20.72 Z"/><path d="M 134.24,25.22 L 135.87,26.12 L 132.29,23.37 L 131.17,22.75 Z"/><path d="M 91.95,10.49 L 93.62,10.64 L 95.92,10.58 L 95.07,10.50 Z"/><path d="M 96.50,10.98 L 98.42,11.26 L 99.78,11.07 L 98.80,10.92 Z"/><path d="M 101.58,11.80 L 103.65,12.20 L 104.00,11.81 L 102.96,11.60 Z"/><path d="M 106.91,12.92 L 109.00,13.41 L 108.34,12.77 L 107.27,12.52 Z"/><path d="M 112.18,14.24 L 114.19,14.81 L 112.53,13.88 L 111.51,13.59 Z"/><path d="M 117.09,15.72 L 118.88,16.33 L 116.33,15.09 L 115.41,14.77 Z"/></g></svg>
