<?xml version="1.0" encoding="UTF-8"?>
<svg id="svg" xmlns="http://www.w3.org/2000/svg" version="1.1" viewBox="0 0 437.01 504.62">
  <!-- Generator: Adobe Illustrator 30.5.1, SVG Export Plug-In . SVG Version: 2.1.4 Build 3)  -->
  <defs>
    <style>
      .st0 {
        fill: none;
        stroke: #000;
        stroke-width: 4px;
      }
    </style>
  </defs>
  <polygon class="st0" points="435.01 377.31 218.51 502.31 2 377.31 2 127.31 218.51 2.31 435.01 127.31 435.01 377.31"/>
  <polygon class="st0" points="427.02 361.78 227.96 487.62 19.45 378.15 10 142.84 209.06 17 417.57 126.47 427.02 361.78"/>
  <polygon class="st0" points="418.9 347.46 236.3 473.44 35.9 378.28 18.11 157.15 200.71 31.18 401.11 126.34 418.9 347.46"/>
  <polygon class="st0" points="410.73 334.3 243.61 459.77 51.39 377.78 26.29 170.32 193.4 44.85 385.62 126.84 410.73 334.3"/>
  <polygon class="st0" points="402.53 322.21 249.98 446.63 65.96 376.73 34.48 182.41 187.03 57.99 371.06 127.89 402.53 322.21"/>
  <polygon class="st0" points="394.36 311.15 255.48 434.02 79.62 375.18 42.65 193.47 181.54 70.6 357.39 129.44 394.36 311.15"/>
  <polygon class="st0" points="386.25 301.04 260.17 421.95 92.43 373.21 50.76 203.57 176.84 82.67 344.58 131.41 386.25 301.04"/>
  <polygon class="st0" points="378.24 291.84 264.14 410.41 104.41 370.88 58.78 212.78 172.87 94.21 332.61 133.74 378.24 291.84"/>
  <polygon class="st0" points="370.35 283.48 267.43 399.39 115.59 368.22 66.67 221.14 169.58 105.23 321.42 136.4 370.35 283.48"/>
  <polygon class="st0" points="362.6 275.91 270.12 388.9 126.02 365.3 74.41 228.71 166.89 115.72 310.99 139.32 362.6 275.91"/>
  <polygon class="st0" points="355.03 269.07 272.25 378.92 135.73 362.16 81.99 235.55 164.76 125.7 301.28 142.46 355.03 269.07"/>
  <polygon class="st0" points="347.64 262.93 273.88 369.45 144.75 358.83 89.37 241.69 163.13 135.17 292.27 145.79 347.64 262.93"/>
  <polygon class="st0" points="340.45 257.42 275.05 360.47 153.11 355.36 96.56 247.2 161.96 144.15 283.91 149.26 340.45 257.42"/>
  <polygon class="st0" points="333.48 252.51 275.82 351.98 160.85 351.78 103.53 252.11 161.19 152.64 276.17 152.84 333.48 252.51"/>
  <polygon class="st0" points="326.73 248.15 276.22 343.96 167.99 348.11 110.28 256.47 160.79 160.66 269.02 156.5 326.73 248.15"/>
  <polygon class="st0" points="320.22 244.3 276.29 336.39 174.58 344.4 116.8 260.31 160.72 168.23 262.43 160.22 320.22 244.3"/>
</svg>