<svg xmlns="http://www.w3.org/2000/svg" viewBox="0 0 749 845" role="img" aria-label="RGB Split cube logo">
  <path d="M 394.0 20.0 L 58.0 205.0 L 391.0 391.0 L 391.0 802.0 L 728.0 620.0 L 728.0 205.0 Z
M 719.0 212.0 L 720.0 615.0 L 400.0 788.0 L 399.0 389.0 L 604.0 274.0 Z
M 20.0 244.0 L 20.0 646.0 L 338.0 824.0 L 338.0 421.0 Z
M 468.0 277.0 L 523.0 246.0 L 532.0 249.0 L 581.0 277.0 L 525.0 309.0 Z
M 534.0 240.0 L 590.0 209.0 L 646.0 241.0 L 596.0 270.0 L 589.0 272.0 L 540.0 245.0 Z
M 403.0 314.0 L 458.0 282.0 L 515.0 314.0 L 460.0 345.0 Z
M 403.0 240.0 L 459.0 209.0 L 515.0 241.0 L 458.0 272.0 L 409.0 245.0 Z
M 599.0 204.0 L 654.0 173.0 L 709.0 203.0 L 711.0 206.0 L 655.0 236.0 Z
M 338.0 277.0 L 392.0 246.0 L 399.0 248.0 L 450.0 277.0 L 393.0 309.0 Z
M 142.0 240.0 L 198.0 209.0 L 253.0 241.0 L 201.0 271.0 L 196.0 272.0 L 149.0 246.0 Z
M 273.0 313.0 L 329.0 282.0 L 384.0 314.0 L 327.0 345.0 L 275.0 316.0 Z
M 273.0 240.0 L 328.0 209.0 L 384.0 241.0 L 327.0 272.0 L 280.0 246.0 Z
M 338.0 350.0 L 388.0 321.0 L 395.0 319.0 L 445.0 347.0 L 449.0 351.0 L 393.0 382.0 Z
M 207.0 277.0 L 262.0 246.0 L 319.0 277.0 L 263.0 309.0 Z
M 338.0 204.0 L 392.0 173.0 L 402.0 177.0 L 449.0 204.0 L 393.0 236.0 Z
M 207.0 204.0 L 252.0 178.0 L 264.0 173.0 L 316.0 202.0 L 318.0 205.0 L 263.0 236.0 Z
M 403.0 167.0 L 458.0 136.0 L 514.0 168.0 L 458.0 199.0 L 407.0 171.0 Z
M 468.0 204.0 L 523.0 173.0 L 580.0 204.0 L 525.0 235.0 L 513.0 230.0 Z
M 273.0 167.0 L 315.0 143.0 L 329.0 137.0 L 377.0 163.0 L 383.0 168.0 L 327.0 199.0 L 278.0 172.0 Z
M 533.0 168.0 L 589.0 137.0 L 642.0 166.0 L 644.0 169.0 L 593.0 198.0 L 588.0 199.0 Z
M 77.0 204.0 L 127.0 176.0 L 134.0 174.0 L 185.0 202.0 L 187.0 205.0 L 132.0 236.0 L 84.0 210.0 Z
M 338.0 131.0 L 385.0 104.0 L 394.0 101.0 L 447.0 130.0 L 448.0 132.0 L 393.0 163.0 L 344.0 136.0 Z
M 143.0 169.0 L 147.0 165.0 L 198.0 137.0 L 253.0 168.0 L 198.0 199.0 Z
M 468.0 131.0 L 524.0 101.0 L 578.0 132.0 L 523.0 163.0 L 469.0 133.0 Z
M 403.0 95.0 L 458.0 65.0 L 513.0 96.0 L 458.0 127.0 L 407.0 99.0 Z
M 209.0 133.0 L 216.0 127.0 L 263.0 101.0 L 318.0 131.0 L 317.0 133.0 L 263.0 163.0 Z
M 273.0 96.0 L 329.0 65.0 L 383.0 95.0 L 382.0 97.0 L 328.0 127.0 Z
M 339.0 60.0 L 392.0 30.0 L 397.0 31.0 L 447.0 60.0 L 394.0 90.0 L 389.0 89.0 Z" fill="#000" fill-rule="evenodd"/>
</svg>
